<?xml version="1.0" standalone="no"?><!DOCTYPE svg PUBLIC "-//W3C//DTD SVG 1.1//EN" "http://www.w3.org/Graphics/SVG/1.1/DTD/svg11.dtd"><svg t="1671970844696" class="icon" viewBox="0 0 1024 1024" version="1.1" xmlns="http://www.w3.org/2000/svg" p-id="1419" xmlns:xlink="http://www.w3.org/1999/xlink" width="200" height="200"><path d="M229.137067 811.9296h607.744a24.9856 24.9856 0 1 1 0 49.937067H204.1856a24.9856 24.9856 0 0 1-24.9856-24.9856V204.1856a24.9856 24.9856 0 1 1 49.937067 0v607.744z m319.010133-130.389333l-81.339733-162.679467-142.404267 199.338667a24.9856 24.9856 0 1 1-40.618667-29.013334l166.468267-233.130666a24.9856 24.9856 0 0 1 42.666667 3.345066l81.134933 162.304 209.066667-298.666666a24.9856 24.9856 0 0 1 40.96 28.672l-233.130667 333.0048a24.9856 24.9856 0 0 1-42.8032-3.1744z" fill="#979797" p-id="1420"></path></svg>